<svg width="30" height="35" viewBox="0 0 30 35" fill="none" xmlns="http://www.w3.org/2000/svg">
<path d="M11.8971 14.6482C10.92 14.6482 10.1486 15.5053 10.1486 16.5511C10.1486 17.5968 10.9371 18.4539 11.8971 18.4539C12.8743 18.4539 13.6457 17.5968 13.6457 16.5511C13.6628 15.5053 12.8743 14.6482 11.8971 14.6482ZM18.1543 14.6482C17.1771 14.6482 16.4057 15.5053 16.4057 16.5511C16.4057 17.5968 17.1943 18.4539 18.1543 18.4539C19.1314 18.4539 19.9028 17.5968 19.9028 16.5511C19.9028 15.5053 19.1314 14.6482 18.1543 14.6482Z" fill="black"/>
<path d="M26.4857 0.265381H3.51429C1.57714 0.265381 0 1.84252 0 3.79681V26.974C0 28.9282 1.57714 30.5054 3.51429 30.5054H22.9543L22.0457 27.3339L24.24 29.374L26.3143 31.294L30 34.5511V3.79681C30 1.84252 28.4229 0.265381 26.4857 0.265381ZM19.8686 22.654C19.8686 22.654 19.2514 21.9168 18.7371 21.2654C20.9829 20.6311 21.84 19.2254 21.84 19.2254C21.1371 19.6882 20.4686 20.014 19.8686 20.2368C19.0114 20.5968 18.1886 20.8368 17.3829 20.974C15.7371 21.2825 14.2286 21.1968 12.9429 20.9568C11.9657 20.7682 11.1257 20.494 10.4229 20.2197C10.0286 20.0654 9.6 19.8768 9.17143 19.6368C9.12 19.6025 9.06857 19.5854 9.01714 19.5511C8.98286 19.534 8.96571 19.5168 8.94857 19.4997C8.64 19.3282 8.46857 19.2082 8.46857 19.2082C8.46857 19.2082 9.29143 20.5797 11.4686 21.2311C10.9543 21.8825 10.32 22.654 10.32 22.654C6.53143 22.534 5.09143 20.0482 5.09143 20.0482C5.09143 14.5282 7.56 10.054 7.56 10.054C10.0286 8.20252 12.3771 8.25395 12.3771 8.25395L12.5486 8.45967C9.46286 9.3511 8.04 10.7054 8.04 10.7054C8.04 10.7054 8.41714 10.4997 9.05143 10.2082C10.8857 9.40252 12.3429 9.17967 12.9429 9.12824C13.0457 9.11109 13.1314 9.09395 13.2343 9.09395C14.28 8.95681 15.4629 8.92252 16.6971 9.05967C18.3257 9.24824 20.0743 9.72824 21.8571 10.7054C21.8571 10.7054 20.5029 9.41967 17.5886 8.52824L17.8286 8.25395C17.8286 8.25395 20.1771 8.20252 22.6457 10.054C22.6457 10.054 25.1143 14.5282 25.1143 20.0482C25.1143 20.0482 23.6571 22.534 19.8686 22.654V22.654Z" fill="black"/>
</svg>
