<svg width="34" height="34" viewBox="0 0 34 34" fill="none" xmlns="http://www.w3.org/2000/svg">
<path d="M16.54 33.08C25.6748 33.08 33.08 25.6748 33.08 16.54C33.08 7.40521 25.6748 0 16.54 0C7.40521 0 0 7.40521 0 16.54C0 25.6748 7.40521 33.08 16.54 33.08Z" fill="black"/>
<path d="M27.5733 16.54C27.5715 16.0675 27.4313 15.6059 27.1699 15.2124C26.9085 14.8188 26.5374 14.5105 26.1026 14.3257C25.6678 14.1408 25.1883 14.0875 24.7236 14.1724C24.2588 14.2572 23.8291 14.4765 23.4876 14.8031C21.8297 13.6188 19.5599 12.8491 17.0335 12.7504L18.1388 7.57915L21.731 8.34891C21.7461 8.77179 21.9153 9.17456 22.2066 9.48143C22.4979 9.78831 22.8914 9.97813 23.3129 10.0152C23.7344 10.0522 24.1549 9.93396 24.4953 9.68262C24.8358 9.43128 25.0726 9.06419 25.1612 8.65044C25.2499 8.23669 25.1843 7.8048 24.9768 7.43605C24.7692 7.06729 24.4341 6.78709 24.0344 6.64817C23.6347 6.50925 23.198 6.52119 22.8065 6.68174C22.415 6.84229 22.0957 7.14039 21.9086 7.51994L17.9019 6.67123C17.793 6.64837 17.6794 6.66967 17.5861 6.73044C17.5379 6.76043 17.4969 6.80079 17.4662 6.84859C17.4354 6.89638 17.4157 6.95041 17.4085 7.00677L16.1848 12.7701C13.6189 12.8491 11.3096 13.6188 9.63193 14.8228C9.37948 14.5775 9.07637 14.3905 8.74389 14.2749C8.41141 14.1592 8.05764 14.1179 7.70746 14.1537C7.35728 14.1894 7.01919 14.3015 6.71696 14.482C6.41473 14.6624 6.1557 14.9069 5.95809 15.1982C5.76047 15.4895 5.62907 15.8205 5.57312 16.1681C5.51717 16.5156 5.53803 16.8712 5.63423 17.2098C5.73043 17.5484 5.89964 17.8618 6.12996 18.128C6.36028 18.3942 6.64611 18.6067 6.96737 18.7506C6.92726 18.9919 6.90745 19.2362 6.90816 19.4808C6.90816 23.1915 11.2307 26.2113 16.5598 26.2113C21.8889 26.2113 26.2114 23.2112 26.2114 19.4808C26.2113 19.2362 26.1915 18.992 26.1522 18.7506C26.5759 18.5569 26.9352 18.2457 27.1871 17.8538C27.439 17.4619 27.5731 17.0059 27.5733 16.54V16.54ZM11.0333 18.2571C11.0333 17.9175 11.134 17.5855 11.3227 17.3031C11.5114 17.0207 11.7795 16.8006 12.0933 16.6707C12.4071 16.5407 12.7524 16.5067 13.0854 16.573C13.4185 16.6392 13.7245 16.8028 13.9647 17.0429C14.2048 17.2831 14.3684 17.589 14.4346 17.9221C14.5009 18.2552 14.4669 18.6005 14.3369 18.9143C14.2069 19.228 13.9868 19.4962 13.7045 19.6849C13.4221 19.8736 13.0901 19.9743 12.7504 19.9743C12.2952 19.9738 11.8587 19.7927 11.5368 19.4708C11.2149 19.1488 11.0338 18.7124 11.0333 18.2571ZM20.6454 22.8165C19.4612 24.0007 17.2111 24.0797 16.5598 24.0797C15.9084 24.0797 13.6386 23.981 12.4741 22.8165C12.3904 22.7327 12.3433 22.6191 12.3433 22.5007C12.3433 22.3822 12.3904 22.2686 12.4741 22.1849C12.5579 22.1011 12.6715 22.0541 12.7899 22.0541C12.9084 22.0541 13.022 22.1011 13.1057 22.1849C13.8557 22.9349 15.4347 23.1915 16.5598 23.1915C17.6848 23.1915 19.2836 22.9349 20.0138 22.1849C20.0549 22.1426 20.104 22.109 20.1582 22.0861C20.2124 22.0631 20.2707 22.0513 20.3296 22.0513C20.3885 22.0513 20.4468 22.0631 20.5011 22.0861C20.5553 22.109 20.6044 22.1426 20.6454 22.1849C20.7219 22.2723 20.7641 22.3845 20.7641 22.5007C20.7641 22.6168 20.7219 22.7291 20.6454 22.8165V22.8165ZM20.3296 19.994C19.99 19.994 19.658 19.8933 19.3756 19.7046C19.0932 19.5159 18.8732 19.2478 18.7432 18.934C18.6132 18.6202 18.5792 18.275 18.6455 17.9419C18.7117 17.6088 18.8753 17.3028 19.1154 17.0626C19.3556 16.8225 19.6615 16.659 19.9946 16.5927C20.3277 16.5264 20.673 16.5604 20.9868 16.6904C21.3005 16.8204 21.5687 17.0405 21.7574 17.3229C21.9461 17.6052 22.0468 17.9372 22.0468 18.2769C22.0463 18.7321 21.8652 19.1686 21.5433 19.4905C21.2214 19.8124 20.7849 19.9935 20.3296 19.994V19.994Z" fill="white"/>
</svg>
