<svg width="30" height="25" viewBox="0 0 30 25" fill="none" xmlns="http://www.w3.org/2000/svg">
<path d="M26.9359 6.10986C26.9542 6.37496 26.9542 6.64252 26.9542 6.91008C26.9542 15.1012 20.7626 24.5454 9.44097 24.5454C6.09375 24.5503 2.81601 23.5839 0 21.7619C0.485396 21.8201 0.97376 21.8496 1.46258 21.8502C4.23486 21.8536 6.92756 20.9172 9.10701 19.1919C7.82243 19.1681 6.57739 18.7403 5.54625 17.9685C4.51512 17.1967 3.7495 16.1194 3.35663 14.8877C4.27875 15.0671 5.22945 15.031 6.13553 14.7821C4.74269 14.4986 3.49005 13.7389 2.58995 12.6316C1.68985 11.5244 1.19768 10.1378 1.19688 8.70687V8.62832C2.05303 9.10818 3.01102 9.37418 3.99041 9.40399C2.68801 8.52679 1.76644 7.18286 1.41322 5.64567C1.06 4.10848 1.30167 2.49352 2.08905 1.1294C3.63445 3.04414 5.56244 4.61024 7.74787 5.72601C9.9333 6.84178 12.3273 7.48229 14.7745 7.60597C14.4685 6.2773 14.6057 4.88411 15.1651 3.64192C15.7245 2.39973 16.6748 1.37777 17.869 0.734166C19.0632 0.0905587 20.4348 -0.138834 21.7715 0.0814779C23.1082 0.30179 24.3355 0.959526 25.2637 1.95293C26.6418 1.6791 27.9633 1.17021 29.1712 0.448236C28.7119 1.88346 27.7503 3.1017 26.4654 3.87614C27.6853 3.73091 28.8768 3.40244 30 2.90165C29.1754 4.14539 28.1379 5.23169 26.9359 6.10986V6.10986Z" fill="black"/>
</svg>
