<svg width="30" height="32" viewBox="0 0 30 32" fill="none" xmlns="http://www.w3.org/2000/svg">
<path fill-rule="evenodd" clip-rule="evenodd" d="M15.0719 8.2719e-06C11.4939 -0.00385618 8.03155 1.34644 5.30531 3.80891C2.57907 6.27138 0.767162 9.68506 0.194281 13.4382C-0.378601 17.1914 0.324994 21.0386 2.17898 24.2906C4.03296 27.5425 6.91615 29.9866 10.3118 31.1848C11.0698 31.3321 11.3378 30.8312 11.3378 30.4088C11.3378 29.9865 11.3378 29.0239 11.3378 27.6882C7.13231 28.6605 6.245 25.5371 6.245 25.5371C5.96601 24.5691 5.37329 23.7374 4.57205 23.1897C3.21336 22.2075 4.68297 22.2075 4.68297 22.2075C5.15925 22.279 5.61397 22.4647 6.01271 22.7506C6.41145 23.0365 6.74374 23.415 6.98443 23.8576C7.18894 24.2516 7.46466 24.5989 7.79577 24.8794C8.12688 25.16 8.50686 25.3683 8.91391 25.4924C9.32096 25.6165 9.74707 25.654 10.1678 25.6027C10.5885 25.5514 10.9955 25.4123 11.3655 25.1934C11.4235 24.3854 11.7513 23.626 12.2898 23.0522C8.94391 22.6495 5.43163 21.2744 5.43163 15.1946C5.40866 13.6064 5.96132 12.0696 6.97519 10.9024C6.52363 9.52146 6.57641 8.01069 7.12307 6.66913C7.12307 6.66913 8.38934 6.23696 11.2639 8.3094C13.7322 7.58921 16.3376 7.58921 18.806 8.3094C21.6805 6.23696 22.9375 6.66913 22.9375 6.66913C23.4918 7.9965 23.5578 9.49643 23.1224 10.8729C24.1363 12.0401 24.6889 13.5769 24.666 15.1651C24.666 21.3137 21.1444 22.6593 17.7893 23.0227C18.1491 23.407 18.4269 23.869 18.6039 24.3774C18.7809 24.8858 18.853 25.4287 18.8152 25.9693C18.8152 28.1105 18.8152 29.8392 18.8152 30.3597C18.8152 30.8803 19.0833 31.283 19.8504 31.1259C23.2075 29.8961 26.0475 27.445 27.8687 24.2057C29.69 20.9664 30.3753 17.1474 29.8035 13.4232C29.2318 9.69902 27.4398 6.30942 24.7441 3.8532C22.0485 1.39698 18.6227 0.0322137 15.0719 8.2719e-06Z" fill="#191717"/>
</svg>
