<?xml version="1.0" encoding="utf-8"?>
<!-- Generator: Adobe Illustrator 24.3.0, SVG Export Plug-In . SVG Version: 6.00 Build 0)  -->
<svg version="1.1" id="Layer_4" xmlns="http://www.w3.org/2000/svg" xmlns:xlink="http://www.w3.org/1999/xlink" x="0px" y="0px"
	 viewBox="0 0 625.2 170" style="enable-background:new 0 0 625.2 170;" xml:space="preserve">
<style type="text/css">
	.st0{fill:#FFFFFF;}
</style>
<rect class="st0" width="625.2" height="170"/>
<path d="M625.2,72.6h-25.8V46.9h25.8V72.6z M625.2,136.8h-25.8v25.8h25.8V136.8z M141.2,167.6l-38-54.3
	c22.4-8.7,35.2-27.2,35.2-52.2c0-36.6-26.9-58.8-70.4-58.8H0v165.2h30.7v-48.2H68c2.1,0,4.3,0,6.4-0.2l33.8,48.4H141.2z M107.4,61.1
	c0,20.8-13.9,33.1-40.8,33.1H30.7V28.3h35.9C93.5,28.3,107.4,40.4,107.4,61.1z M223.8,170c45.3,0,66.8-22.7,66.8-49.1
	c0-60.7-98-37.8-98-72.9c0-12.5,10.4-22.4,35.9-22.4c14.4,0,30.7,4.2,45.6,13l9.7-23.8C269.3,5.2,248.5,0,228.7,0
	c-45.3,0-66.6,22.7-66.6,49.3c0,61.4,98.2,38,98.2,73.7c0,12.3-10.9,21.5-36.6,21.5c-20.3,0-41.3-7.6-54.5-18.2l-10.6,23.8
	C172.3,162,198.1,170,223.8,170z M372.3,170c45.3,0,66.8-22.7,66.8-49.1c0-60.7-98-37.8-97.9-72.9c0-12.5,10.4-22.4,35.9-22.4
	c14.4,0,30.7,4.2,45.5,13l9.7-23.8C417.8,5.2,397,0,377.2,0c-45.3,0-66.6,22.7-66.5,49.3c0,61.4,98.2,38,98.2,73.7
	c0,12.3-10.9,21.5-36.6,21.5c-20.3,0-41.3-7.6-54.6-18.2l-10.6,23.8C320.8,162,346.5,170,372.3,170z M526.9,70.6L567,23V2.4H454.4
	v25.7h75.1l-37.5,44.6v21H507c25,0,35.9,9.7,35.9,24.5c0,15.3-13,25-34.9,25c-18.7,0-36.6-6.4-48.4-16.3l-13.2,23.8
	c15.3,12,38.7,19.1,62,19.1c44.4,0,65.4-24.1,65.4-51.9C573.8,93.2,558,74.6,526.9,70.6L526.9,70.6z"/>
</svg>
