<svg width="30" height="25" viewBox="0 0 30 25" fill="none" xmlns="http://www.w3.org/2000/svg">
<path d="M1.84123 10.7994L19.7086 3.43811C21.4725 2.67077 27.4563 0.216994 27.4563 0.216994C27.4563 0.216994 30.2157 -0.850697 29.9865 1.75061C29.9101 2.82467 29.2966 6.58175 28.6832 10.6466L26.7643 22.6852C26.7643 22.6852 26.6104 24.4491 25.305 24.7559C23.9995 25.0626 21.8535 23.6829 21.4704 23.3761C21.1637 23.1469 15.7191 19.6955 13.7227 18.009C13.1857 17.5484 12.5733 16.6293 13.8002 15.5552C16.5597 13.024 19.8583 9.88034 21.8514 7.88612C22.7716 6.96595 23.6918 4.81889 19.8583 7.42656L9.05292 14.7104C9.05292 14.7104 7.82604 15.4778 5.52509 14.7868C3.22414 14.0959 0.536865 13.1768 0.536865 13.1768C0.536865 13.1768 -1.30559 12.0263 1.83592 10.8005L1.84123 10.7994Z" fill="black"/>
</svg>
