<?xml version="1.0" standalone="no"?>
<!DOCTYPE svg PUBLIC "-//W3C//DTD SVG 20010904//EN"
 "http://www.w3.org/TR/2001/REC-SVG-20010904/DTD/svg10.dtd">
<svg version="1.0" xmlns="http://www.w3.org/2000/svg"
 width="700.000000pt" height="700.000000pt" viewBox="0 0 700.000000 700.000000"
 preserveAspectRatio="xMidYMid meet">
<metadata>
Created by potrace 1.14, written by Peter Selinger 2001-2017
</metadata>
<g transform="translate(0.000000,700.000000) scale(0.100000,-0.100000)"
fill="#000000" stroke="none">
<path d="M2738 4065 c-179 -45 -278 -149 -286 -300 -11 -195 81 -279 393 -358
83 -21 171 -50 197 -64 120 -65 89 -197 -55 -234 -30 -7 -86 -10 -150 -6 -115
6 -192 28 -283 83 -32 20 -60 32 -61 27 -2 -4 -19 -42 -38 -83 l-35 -75 23
-19 c82 -68 258 -116 426 -116 218 0 354 62 427 192 26 48 29 62 29 143 0 73
-4 98 -22 131 -49 92 -143 144 -359 198 -227 57 -279 89 -279 170 0 91 68 137
210 144 101 5 179 -11 277 -55 32 -14 61 -23 65 -19 10 9 63 139 63 152 0 15
-82 55 -160 79 -76 24 -304 30 -382 10z"/>
<path d="M3748 4064 c-164 -39 -269 -147 -284 -292 -14 -126 49 -233 170 -292
33 -16 129 -47 211 -69 83 -21 169 -47 193 -56 114 -46 125 -166 21 -224 -35
-20 -61 -25 -143 -29 -142 -6 -267 27 -373 98 l-32 21 -31 -68 c-17 -37 -32
-77 -33 -87 -4 -37 118 -99 253 -131 77 -18 267 -20 342 -4 129 28 237 106
278 202 43 97 26 232 -37 302 -60 67 -130 99 -345 155 -218 58 -258 84 -258
167 0 145 238 190 478 91 40 -17 74 -29 76 -27 13 16 63 155 59 162 -11 17
-128 65 -200 81 -88 20 -265 20 -345 0z"/>
<path d="M1340 3501 l0 -571 105 0 105 0 0 165 0 165 150 0 149 0 112 -161
c61 -88 117 -163 123 -165 7 -3 60 -3 119 -2 l107 3 -129 184 -129 184 41 21
c64 31 141 116 168 183 18 46 23 78 23 158 1 92 -2 105 -31 167 -51 108 -126
169 -263 214 -46 15 -103 18 -352 22 l-298 4 0 -571z m616 352 c83 -45 120
-116 111 -215 -7 -83 -42 -132 -115 -166 -53 -25 -68 -27 -229 -30 l-173 -4 0
222 0 222 183 -4 c165 -3 186 -5 223 -25z"/>
<path d="M4442 3978 l3 -93 248 -3 c136 -1 247 -5 247 -8 0 -2 -54 -69 -120
-147 l-120 -142 0 -71 0 -71 98 -6 c124 -8 168 -21 208 -61 84 -84 35 -223
-88 -257 -58 -15 -220 -6 -283 15 -27 10 -71 31 -98 47 -26 16 -51 29 -55 29
-8 0 -96 -160 -90 -165 25 -22 120 -69 183 -91 62 -21 106 -28 197 -32 242
-10 386 54 460 206 29 59 33 76 32 147 0 99 -27 167 -89 224 -52 48 -102 74
-172 91 l-52 12 134 159 135 160 0 75 0 74 -390 0 -391 0 3 -92z"/>
<path d="M5461 3792 c-86 -46 -93 -174 -13 -231 21 -15 45 -21 81 -21 44 0 56
5 87 33 31 28 37 42 41 83 12 117 -95 190 -196 136z"/>
<path d="M5492 3189 c-84 -18 -128 -122 -82 -197 75 -122 250 -76 250 66 0 92
-75 151 -168 131z"/>
</g>
</svg>
